<?xml version="1.0" encoding="utf-8"?>
<!-- Generator: Adobe Illustrator 23.1.1, SVG Export Plug-In . SVG Version: 6.00 Build 0)  -->
<svg version="1.1" id="Layer_1" xmlns="http://www.w3.org/2000/svg" xmlns:xlink="http://www.w3.org/1999/xlink" x="0px" y="0px"
	 viewBox="0 0 300 300" style="enable-background:new 0 0 300 300;" xml:space="preserve">
<style type="text/css">
	.st0{display:none;}
	.st1{display:inline;}
	.st2{fill:#FFFFFF;}
</style>
<g class="st0">
	<g class="st1">
		<path d="M223.1,123.1l-0.4-53.7l-14.1,8.3l-34.1-59.1C169.1,9,159.5,4.3,150,4.3c-9.5,0-19,4.7-24.4,14.2l-38,65.7l18.1,10.3
			l37.9-65.6c1.9-3.3,4.8-3.8,6.4-3.8c1.7,0,4.6,0.5,6.5,3.8l34.3,59.3l-14.4,8.5L223.1,123.1z"/>
	</g>
	<g class="st1">
		<path d="M49.6,199c-0.8-1.4-1.9-4.2,0-7.5L82.3,135l14.2,8.1l-0.4-53.7l-46.3,27.3l14.4,8.2l-32.5,56.4
			c-10.9,18.8,2.7,42.4,24.4,42.4h70.4v-20.8H56.1C52.4,202.7,50.4,200.3,49.6,199z"/>
	</g>
	<g class="st1">
		<path d="M268.3,181.1l-36.4-63l-17.9,10.5l36.3,62.8c1.9,3.3,0.8,6.1,0,7.5c-0.8,1.4-2.8,3.7-6.5,3.7h-70.6v-15l-46.5,26.9
			l46.5,26.9v-18h70.6C265.6,223.5,279.3,199.9,268.3,181.1z"/>
	</g>
</g>
<g>
	<path d="M68,200.2c-6.2,0-11-2.3-13.3-6.3c-2.2-3.9-1.8-9,1.4-14.5l25.5-44.2l15.7,9.1V83.8l-52.5,30.3l15.3,8.8l-25.5,44.2
		c-7.6,13.2-8.1,27.6-1.4,39.3c6.8,11.7,19.8,18.7,34.9,18.7H120v-12.7v-12.1H68z"/>
	<path d="M137.4,38.6c2.9-5.1,7.3-8,12-8c4.7,0,9,2.9,12,8l29.4,51l-15.4,8.9l52.5,30.3V68.1l-15.6,9l-29.4-51
		c-7.4-12.8-19.9-20.4-33.5-20.4c-13.6,0-26.1,7.6-33.5,20.4L86.6,76.9L108.3,89L137.4,38.6z"/>
	<path d="M264.2,167.1l-25.6-44.3l-21.5,12.4l25.6,44.3c3.1,5.4,3.6,10.6,1.4,14.5c-2.3,4-7.2,6.3-13.3,6.3h-58.2V182L120,212.3
		l52.5,30.3v-17.6h58.2c15.1,0,28.1-7,34.8-18.7C272.3,194.7,271.8,180.3,264.2,167.1z"/>
</g>
<g>
	<g>
		<polygon class="st2" points="66.4,-88.1 67.6,-88.8 68.4,-89.3 68.4,-87 		"/>
		<path class="st2" d="M58.1-103.6c-1.6,0-3.2,0.8-4.1,2.4l-6.4,11l3,1.7l6.4-11c0.3-0.6,0.8-0.6,1.1-0.6c0.3,0,0.8,0.1,1.1,0.6
			l5.7,9.9l-2.4,1.4l7.8,4.4l-0.1-9L68-91.3l-5.7-9.9C61.3-102.8,59.7-103.6,58.1-103.6L58.1-103.6z"/>
	</g>
	<g>
		<polygon class="st2" points="45.2,-84.8 47.2,-86 47.2,-83.7 		"/>
		<path class="st2" d="M49.1-89.3l-7.8,4.6l2.4,1.4l-5.5,9.5c-1.8,3.2,0.5,7.1,4.1,7.1h11.8v-3.5H42.4c-0.6,0-1-0.4-1.1-0.6
			c-0.1-0.2-0.3-0.7,0-1.3l5.5-9.5l2.4,1.4L49.1-89.3L49.1-89.3z"/>
	</g>
	<g>
		<polygon class="st2" points="58.1,-68.3 60.1,-69.5 60.1,-67.2 		"/>
		<path class="st2" d="M71.9-84.5l-3,1.8L75-72.2c0.3,0.5,0.1,1,0,1.3c-0.1,0.2-0.5,0.6-1.1,0.6H62v-2.5l-7.8,4.5l7.8,4.5v-3h11.8
			c3.6,0,5.9-4,4.1-7.1L71.9-84.5L71.9-84.5z"/>
	</g>
</g>
<g>
	<path d="M116,127.3c0.7-2.4,1.9-4.5,3.4-6.3c1.5-1.8,3.4-3.2,5.6-4.2c2.3-1,4.9-1.5,7.8-1.5c2.2,0,4.4,0.3,6.4,1s3.8,1.7,5.3,3
		c1.5,1.3,2.8,2.9,3.7,4.8c0.9,1.9,1.4,4,1.4,6.4c0,2.5-0.4,4.6-1.2,6.4c-0.8,1.8-1.8,3.3-3.1,4.7s-2.8,2.6-4.4,3.7
		c-1.7,1.1-3.3,2.2-5,3.3c-1.7,1.1-3.3,2.3-4.9,3.5c-1.6,1.3-3,2.7-4.2,4.4h23.1v8.5h-35.9c0-2.8,0.4-5.3,1.2-7.4
		c0.8-2.1,1.9-4,3.3-5.6c1.4-1.6,3-3.2,4.9-4.6s3.9-2.8,6-4.3c1.1-0.7,2.2-1.5,3.4-2.3s2.3-1.6,3.3-2.5c1-0.9,1.8-2,2.5-3.1
		c0.7-1.2,1-2.5,1-4c0-2.4-0.7-4.2-2.1-5.6c-1.4-1.3-3.1-2-5.3-2c-1.4,0-2.7,0.3-3.7,1c-1,0.7-1.8,1.6-2.4,2.7
		c-0.6,1.1-1,2.3-1.3,3.6c-0.3,1.3-0.4,2.6-0.4,3.9H115C114.9,132.3,115.3,129.7,116,127.3z"/>
	<path d="M154.2,128.5c1-3.2,2.2-5.8,3.9-7.8c1.6-2,3.5-3.4,5.7-4.2c2.2-0.8,4.5-1.3,6.9-1.3c2.5,0,4.8,0.4,6.9,1.3
		c2.2,0.8,4.1,2.2,5.7,4.2c1.7,2,3,4.5,3.9,7.8c1,3.2,1.4,7.2,1.4,12c0,4.9-0.5,9-1.4,12.3c-1,3.3-2.3,5.9-3.9,7.9
		c-1.6,2-3.6,3.4-5.7,4.2c-2.2,0.8-4.5,1.3-6.9,1.3c-2.4,0-4.7-0.4-6.9-1.3c-2.2-0.8-4.1-2.2-5.7-4.2c-1.6-2-2.9-4.6-3.9-7.9
		c-1-3.3-1.4-7.4-1.4-12.3C152.7,135.7,153.2,131.8,154.2,128.5z M162.8,145.6c0.1,2,0.4,3.9,0.9,5.7c0.5,1.8,1.3,3.4,2.3,4.7
		c1.1,1.3,2.6,2,4.6,2c2,0,3.6-0.7,4.7-2c1.1-1.3,1.9-2.9,2.4-4.7c0.5-1.8,0.8-3.7,0.9-5.7s0.1-3.7,0.1-5.1c0-0.8,0-1.8,0-3
		c0-1.2-0.1-2.4-0.3-3.7c-0.2-1.3-0.4-2.5-0.7-3.7c-0.3-1.2-0.8-2.3-1.4-3.3c-0.6-1-1.4-1.8-2.3-2.4c-0.9-0.6-2.1-0.9-3.4-0.9
		s-2.5,0.3-3.4,0.9c-0.9,0.6-1.7,1.4-2.2,2.4c-0.6,1-1,2.1-1.4,3.3c-0.3,1.2-0.6,2.5-0.7,3.7c-0.1,1.3-0.2,2.5-0.2,3.7
		c0,1.2,0,2.2,0,3C162.6,141.9,162.7,143.6,162.8,145.6z"/>
</g>
<g>
	<path d="M107.1,246.5c3.1,0,5.8,0.5,8,1.4c2.2,0.9,4,2.1,5.3,3.6s2.4,3.2,3,5.1c0.6,1.9,0.9,3.9,0.9,5.9c0,2-0.3,4-0.9,5.9
		c-0.6,1.9-1.6,3.6-3,5.1c-1.4,1.5-3.2,2.7-5.3,3.6c-2.2,0.9-4.8,1.4-8,1.4H95.6v17.9h-11v-49.8H107.1z M104.1,269.9
		c1.3,0,2.5-0.1,3.6-0.3s2.2-0.5,3.1-1.1c0.9-0.5,1.6-1.3,2.1-2.3c0.5-1,0.8-2.3,0.8-3.8c0-1.6-0.3-2.9-0.8-3.8
		c-0.5-1-1.2-1.7-2.1-2.3c-0.9-0.5-1.9-0.9-3.1-1.1c-1.2-0.2-2.4-0.3-3.6-0.3h-8.5v14.9H104.1z"/>
	<path d="M155.1,246.5l18.6,49.8h-11.4l-3.8-11.1h-18.6l-3.9,11.1h-11l18.8-49.8H155.1z M155.7,277l-6.3-18.3h-0.1l-6.5,18.3H155.7z
		"/>
	<path d="M204.7,246.5c3.1,0,5.8,0.5,8,1.4c2.2,0.9,4,2.1,5.3,3.6s2.4,3.2,3,5.1c0.6,1.9,0.9,3.9,0.9,5.9c0,2-0.3,4-0.9,5.9
		c-0.6,1.9-1.6,3.6-3,5.1c-1.4,1.5-3.2,2.7-5.3,3.6c-2.2,0.9-4.8,1.4-8,1.4h-11.5v17.9h-11v-49.8H204.7z M201.7,269.9
		c1.3,0,2.5-0.1,3.6-0.3c1.2-0.2,2.2-0.5,3.1-1.1c0.9-0.5,1.6-1.3,2.1-2.3c0.5-1,0.8-2.3,0.8-3.8c0-1.6-0.3-2.9-0.8-3.8
		c-0.5-1-1.2-1.7-2.1-2.3c-0.9-0.5-1.9-0.9-3.1-1.1c-1.2-0.2-2.4-0.3-3.6-0.3h-8.5v14.9H201.7z"/>
</g>
<g>
	<g>
		<polygon class="st2" points="131.8,-88.1 132.9,-88.8 133.7,-89.3 133.7,-87 		"/>
		<path class="st2" d="M123.5-103.6c-1.6,0-3.2,0.8-4.1,2.4l-6.4,11l3,1.7l6.4-11c0.3-0.6,0.8-0.6,1.1-0.6c0.3,0,0.8,0.1,1.1,0.6
			l5.7,9.9l-2.4,1.4l7.8,4.4l-0.1-9l-2.4,1.4l-5.7-9.9C126.7-102.8,125.1-103.6,123.5-103.6L123.5-103.6z"/>
	</g>
	<g>
		<polygon class="st2" points="110.5,-84.8 112.5,-86 112.5,-83.7 		"/>
		<path class="st2" d="M114.4-89.3l-7.8,4.6l2.4,1.4l-5.5,9.5c-1.8,3.2,0.5,7.1,4.1,7.1h11.8v-3.5h-11.8c-0.6,0-1-0.4-1.1-0.6
			c-0.1-0.2-0.3-0.7,0-1.3l5.5-9.5l2.4,1.4L114.4-89.3L114.4-89.3z"/>
	</g>
	<g>
		<polygon class="st2" points="123.4,-68.3 125.4,-69.5 125.4,-67.2 		"/>
		<path class="st2" d="M137.2-84.5l-3,1.8l6.1,10.5c0.3,0.5,0.1,1,0,1.3c-0.1,0.2-0.5,0.6-1.1,0.6h-11.8v-2.5l-7.8,4.5l7.8,4.5v-3
			h11.8c3.6,0,5.9-4,4.1-7.1L137.2-84.5L137.2-84.5z"/>
	</g>
</g>
<g>
	<path class="st2" d="M117.8-82.9c0.1-0.4,0.3-0.7,0.6-1c0.2-0.3,0.6-0.5,0.9-0.7c0.4-0.2,0.8-0.2,1.3-0.2c0.4,0,0.7,0.1,1.1,0.2
		s0.6,0.3,0.9,0.5s0.5,0.5,0.6,0.8s0.2,0.7,0.2,1.1c0,0.4-0.1,0.8-0.2,1.1c-0.1,0.3-0.3,0.6-0.5,0.8s-0.5,0.4-0.7,0.6
		c-0.3,0.2-0.6,0.4-0.8,0.6c-0.3,0.2-0.5,0.4-0.8,0.6s-0.5,0.5-0.7,0.7h3.8v1.4h-6c0-0.5,0.1-0.9,0.2-1.2s0.3-0.7,0.6-0.9
		c0.2-0.3,0.5-0.5,0.8-0.8s0.6-0.5,1-0.7c0.2-0.1,0.4-0.2,0.6-0.4s0.4-0.3,0.6-0.4c0.2-0.2,0.3-0.3,0.4-0.5c0.1-0.2,0.2-0.4,0.2-0.7
		c0-0.4-0.1-0.7-0.3-0.9c-0.2-0.2-0.5-0.3-0.9-0.3c-0.2,0-0.4,0.1-0.6,0.2c-0.2,0.1-0.3,0.3-0.4,0.4s-0.2,0.4-0.2,0.6
		c0,0.2-0.1,0.4-0.1,0.7h-1.6C117.6-82,117.6-82.5,117.8-82.9z"/>
	<path class="st2" d="M126.5-76.6v-5.3h-2v-1.2c0.3,0,0.6,0,0.8-0.1c0.3-0.1,0.5-0.1,0.7-0.3s0.4-0.3,0.5-0.5
		c0.1-0.2,0.2-0.5,0.3-0.8h1.3v8.1H126.5z"/>
</g>
<g>
	<path class="st2" d="M116.3-63c0.5,0,1,0.1,1.3,0.2c0.4,0.2,0.7,0.4,0.9,0.6s0.4,0.5,0.5,0.8s0.2,0.6,0.2,1c0,0.3-0.1,0.7-0.2,1
		s-0.3,0.6-0.5,0.9c-0.2,0.2-0.5,0.4-0.9,0.6c-0.4,0.2-0.8,0.2-1.3,0.2h-1.9v3h-1.8V-63H116.3z M115.8-59.1c0.2,0,0.4,0,0.6,0
		s0.4-0.1,0.5-0.2c0.1-0.1,0.3-0.2,0.4-0.4c0.1-0.2,0.1-0.4,0.1-0.6c0-0.3,0-0.5-0.1-0.6c-0.1-0.2-0.2-0.3-0.4-0.4
		c-0.1-0.1-0.3-0.1-0.5-0.2s-0.4,0-0.6,0h-1.4v2.5H115.8z"/>
	<path class="st2" d="M124.2-63l3.1,8.3h-1.9l-0.6-1.8h-3.1l-0.7,1.8h-1.8l3.1-8.3H124.2z M124.4-57.9l-1-3h0l-1.1,3H124.4z"/>
	<path class="st2" d="M132.5-63c0.5,0,1,0.1,1.3,0.2c0.4,0.2,0.7,0.4,0.9,0.6s0.4,0.5,0.5,0.8s0.2,0.6,0.2,1c0,0.3-0.1,0.7-0.2,1
		s-0.3,0.6-0.5,0.9c-0.2,0.2-0.5,0.4-0.9,0.6c-0.4,0.2-0.8,0.2-1.3,0.2h-1.9v3h-1.8V-63H132.5z M132-59.1c0.2,0,0.4,0,0.6,0
		s0.4-0.1,0.5-0.2c0.1-0.1,0.3-0.2,0.4-0.4c0.1-0.2,0.1-0.4,0.1-0.6c0-0.3,0-0.5-0.1-0.6c-0.1-0.2-0.2-0.3-0.4-0.4
		c-0.1-0.1-0.3-0.1-0.5-0.2s-0.4,0-0.6,0h-1.4v2.5H132z"/>
</g>
<g>
	<g>
		<polygon class="st2" points="197.1,-88.1 198.3,-88.8 199.1,-89.3 199.1,-87 		"/>
		<path class="st2" d="M188.8-103.6c-1.6,0-3.2,0.8-4.1,2.4l-6.4,11l3,1.7l6.4-11c0.3-0.6,0.8-0.6,1.1-0.6c0.3,0,0.8,0.1,1.1,0.6
			l5.7,9.9l-2.4,1.4l7.8,4.4l-0.1-9l-2.4,1.4l-5.7-9.9C192-102.8,190.4-103.6,188.8-103.6L188.8-103.6z"/>
	</g>
	<g>
		<polygon class="st2" points="175.9,-84.8 177.8,-86 177.8,-83.7 		"/>
		<path class="st2" d="M179.7-89.3l-7.8,4.6l2.4,1.4l-5.5,9.5c-1.8,3.2,0.5,7.1,4.1,7.1h11.8v-3.5H173c-0.6,0-1-0.4-1.1-0.6
			c-0.1-0.2-0.3-0.7,0-1.3l5.5-9.5l2.4,1.4L179.7-89.3L179.7-89.3z"/>
	</g>
	<g>
		<polygon class="st2" points="188.8,-68.3 190.7,-69.5 190.7,-67.2 		"/>
		<path class="st2" d="M202.5-84.5l-3,1.8l6.1,10.5c0.3,0.5,0.1,1,0,1.3c-0.1,0.2-0.5,0.6-1.1,0.6h-11.8v-2.5l-7.8,4.5l7.8,4.5v-3
			h11.8c3.6,0,5.9-4,4.1-7.1L202.5-84.5L202.5-84.5z"/>
	</g>
</g>
<g>
	<path class="st2" d="M183.4-82.9c0.1-0.4,0.3-0.7,0.6-1c0.2-0.3,0.6-0.5,0.9-0.7c0.4-0.2,0.8-0.2,1.3-0.2c0.4,0,0.7,0.1,1.1,0.2
		s0.6,0.3,0.9,0.5s0.5,0.5,0.6,0.8s0.2,0.7,0.2,1.1c0,0.4-0.1,0.8-0.2,1.1c-0.1,0.3-0.3,0.6-0.5,0.8s-0.5,0.4-0.7,0.6
		c-0.3,0.2-0.6,0.4-0.8,0.6c-0.3,0.2-0.5,0.4-0.8,0.6s-0.5,0.5-0.7,0.7h3.8v1.4h-6c0-0.5,0.1-0.9,0.2-1.2s0.3-0.7,0.6-0.9
		c0.2-0.3,0.5-0.5,0.8-0.8s0.6-0.5,1-0.7c0.2-0.1,0.4-0.2,0.6-0.4s0.4-0.3,0.6-0.4c0.2-0.2,0.3-0.3,0.4-0.5c0.1-0.2,0.2-0.4,0.2-0.7
		c0-0.4-0.1-0.7-0.3-0.9c-0.2-0.2-0.5-0.3-0.9-0.3c-0.2,0-0.4,0.1-0.6,0.2c-0.2,0.1-0.3,0.3-0.4,0.4s-0.2,0.4-0.2,0.6
		c0,0.2-0.1,0.4-0.1,0.7h-1.6C183.3-82,183.3-82.5,183.4-82.9z"/>
	<path class="st2" d="M189.9-82.9c0.1-0.4,0.3-0.7,0.6-1c0.2-0.3,0.6-0.5,0.9-0.7c0.4-0.2,0.8-0.2,1.3-0.2c0.4,0,0.7,0.1,1.1,0.2
		s0.6,0.3,0.9,0.5s0.5,0.5,0.6,0.8s0.2,0.7,0.2,1.1c0,0.4-0.1,0.8-0.2,1.1c-0.1,0.3-0.3,0.6-0.5,0.8s-0.5,0.4-0.7,0.6
		c-0.3,0.2-0.6,0.4-0.8,0.6c-0.3,0.2-0.5,0.4-0.8,0.6s-0.5,0.5-0.7,0.7h3.8v1.4h-6c0-0.5,0.1-0.9,0.2-1.2s0.3-0.7,0.6-0.9
		c0.2-0.3,0.5-0.5,0.8-0.8s0.6-0.5,1-0.7c0.2-0.1,0.4-0.2,0.6-0.4s0.4-0.3,0.6-0.4c0.2-0.2,0.3-0.3,0.4-0.5c0.1-0.2,0.2-0.4,0.2-0.7
		c0-0.4-0.1-0.7-0.3-0.9c-0.2-0.2-0.5-0.3-0.9-0.3c-0.2,0-0.4,0.1-0.6,0.2c-0.2,0.1-0.3,0.3-0.4,0.4s-0.2,0.4-0.2,0.6
		c0,0.2-0.1,0.4-0.1,0.7h-1.6C189.7-82,189.8-82.5,189.9-82.9z"/>
</g>
<g>
	<path class="st2" d="M182-63c0.5,0,1,0.1,1.3,0.2c0.4,0.2,0.7,0.4,0.9,0.6s0.4,0.5,0.5,0.8s0.2,0.6,0.2,1c0,0.3-0.1,0.7-0.2,1
		s-0.3,0.6-0.5,0.9c-0.2,0.2-0.5,0.4-0.9,0.6c-0.4,0.2-0.8,0.2-1.3,0.2H180v3h-1.8V-63H182z M181.5-59.1c0.2,0,0.4,0,0.6,0
		s0.4-0.1,0.5-0.2c0.1-0.1,0.3-0.2,0.4-0.4c0.1-0.2,0.1-0.4,0.1-0.6c0-0.3,0-0.5-0.1-0.6c-0.1-0.2-0.2-0.3-0.4-0.4
		c-0.1-0.1-0.3-0.1-0.5-0.2s-0.4,0-0.6,0H180v2.5H181.5z"/>
	<path class="st2" d="M189.9-63l3.1,8.3h-1.9l-0.6-1.8h-3.1l-0.7,1.8h-1.8l3.1-8.3H189.9z M190-57.9l-1-3h0l-1.1,3H190z"/>
	<path class="st2" d="M198.2-63c0.5,0,1,0.1,1.3,0.2c0.4,0.2,0.7,0.4,0.9,0.6s0.4,0.5,0.5,0.8s0.2,0.6,0.2,1c0,0.3-0.1,0.7-0.2,1
		s-0.3,0.6-0.5,0.9c-0.2,0.2-0.5,0.4-0.9,0.6c-0.4,0.2-0.8,0.2-1.3,0.2h-1.9v3h-1.8V-63H198.2z M197.7-59.1c0.2,0,0.4,0,0.6,0
		s0.4-0.1,0.5-0.2c0.1-0.1,0.3-0.2,0.4-0.4c0.1-0.2,0.1-0.4,0.1-0.6c0-0.3,0-0.5-0.1-0.6c-0.1-0.2-0.2-0.3-0.4-0.4
		c-0.1-0.1-0.3-0.1-0.5-0.2s-0.4,0-0.6,0h-1.4v2.5H197.7z"/>
</g>
</svg>
