<?xml version="1.0" encoding="utf-8"?>
<!-- Generator: Adobe Illustrator 23.1.1, SVG Export Plug-In . SVG Version: 6.00 Build 0)  -->
<svg version="1.1" id="Layer_1" xmlns="http://www.w3.org/2000/svg" xmlns:xlink="http://www.w3.org/1999/xlink" x="0px" y="0px"
	 viewBox="0 0 300 300" style="enable-background:new 0 0 300 300;" xml:space="preserve">
<style type="text/css">
	.st0{display:none;}
	.st1{display:inline;}
	.st2{fill:#FFFFFF;}
</style>
<g class="st0">
	<g class="st1">
		<path d="M223.1,123.1l-0.4-53.7l-14.1,8.3l-34.1-59.1C169.1,9,159.5,4.3,150,4.3c-9.5,0-19,4.7-24.4,14.2l-38,65.7l18.1,10.3
			l37.9-65.6c1.9-3.3,4.8-3.8,6.4-3.8c1.7,0,4.6,0.5,6.5,3.8l34.3,59.3l-14.4,8.5L223.1,123.1z"/>
	</g>
	<g class="st1">
		<path d="M49.6,199c-0.8-1.4-1.9-4.2,0-7.5L82.3,135l14.2,8.1l-0.4-53.7l-46.3,27.3l14.4,8.2l-32.5,56.4
			c-10.9,18.8,2.7,42.4,24.4,42.4h70.4v-20.8H56.1C52.4,202.7,50.4,200.3,49.6,199z"/>
	</g>
	<g class="st1">
		<path d="M268.3,181.1l-36.4-63l-17.9,10.5l36.3,62.8c1.9,3.3,0.8,6.1,0,7.5c-0.8,1.4-2.8,3.7-6.5,3.7h-70.6v-15l-46.5,26.9
			l46.5,26.9v-18h70.6C265.6,223.5,279.3,199.9,268.3,181.1z"/>
	</g>
</g>
<g>
	<path d="M68,200.2c-6.2,0-11-2.3-13.3-6.3c-2.2-3.9-1.8-9,1.4-14.5l25.5-44.2l15.7,9.1V83.8l-52.5,30.3l15.3,8.8l-25.5,44.2
		c-7.6,13.2-8.1,27.6-1.4,39.3c6.8,11.7,19.8,18.7,34.9,18.7H120v-12.7v-12.1H68z"/>
	<path d="M137.4,38.6c2.9-5.1,7.3-8,12-8c4.7,0,9,2.9,12,8l29.4,51l-15.4,8.9l52.5,30.3V68.1l-15.6,9l-29.4-51
		c-7.4-12.8-19.9-20.4-33.5-20.4c-13.6,0-26.1,7.6-33.5,20.4L86.6,76.9L108.3,89L137.4,38.6z"/>
	<path d="M264.2,167.1l-25.6-44.3l-21.5,12.4l25.6,44.3c3.1,5.4,3.6,10.6,1.4,14.5c-2.3,4-7.2,6.3-13.3,6.3h-58.2V182L120,212.3
		l52.5,30.3v-17.6h58.2c15.1,0,28.1-7,34.8-18.7C272.3,194.7,271.8,180.3,264.2,167.1z"/>
</g>
<g>
	<path d="M115.2,129.2c0.9-3.2,2.2-5.8,3.8-7.7c1.6-1.9,3.5-3.3,5.6-4.2c2.1-0.8,4.4-1.2,6.8-1.2c2.4,0,4.7,0.4,6.9,1.2
		c2.1,0.8,4,2.2,5.7,4.2c1.6,1.9,2.9,4.5,3.9,7.7c0.9,3.2,1.4,7.2,1.4,11.9c0,4.9-0.5,8.9-1.4,12.2c-1,3.3-2.2,5.8-3.9,7.8
		c-1.6,1.9-3.5,3.3-5.7,4.2c-2.1,0.8-4.4,1.2-6.9,1.2c-2.4,0-4.7-0.4-6.8-1.2c-2.1-0.8-4-2.2-5.6-4.2c-1.6-1.9-2.9-4.5-3.8-7.8
		c-0.9-3.3-1.4-7.3-1.4-12.2C113.7,136.4,114.2,132.4,115.2,129.2z M123.7,146.1c0.1,2,0.4,3.9,0.9,5.7c0.5,1.8,1.3,3.4,2.3,4.7
		c1.1,1.3,2.6,1.9,4.6,1.9c2,0,3.6-0.6,4.7-1.9c1.1-1.3,1.9-2.9,2.4-4.7c0.5-1.8,0.8-3.7,0.9-5.7s0.1-3.6,0.1-5c0-0.8,0-1.8,0-3
		c0-1.2-0.1-2.4-0.3-3.6c-0.2-1.2-0.4-2.5-0.7-3.7c-0.3-1.2-0.8-2.3-1.4-3.3c-0.6-1-1.4-1.8-2.3-2.4c-0.9-0.6-2.1-0.9-3.4-0.9
		c-1.3,0-2.5,0.3-3.4,0.9s-1.6,1.4-2.2,2.4c-0.6,1-1,2.1-1.4,3.3c-0.3,1.2-0.5,2.5-0.7,3.7c-0.1,1.2-0.2,2.5-0.2,3.6
		c0,1.2,0,2.2,0,3C123.6,142.5,123.6,144.1,123.7,146.1z"/>
	<path d="M168.1,165.5v-31.4h-12.2v-7.4c1.7,0,3.4-0.1,5-0.4c1.6-0.3,3-0.8,4.3-1.6c1.3-0.8,2.3-1.8,3.2-3c0.9-1.2,1.5-2.8,1.7-4.6
		h7.8v48.5H168.1z"/>
</g>
<g>
	<path d="M107,246.2c3.1,0,5.7,0.4,7.9,1.4c2.2,0.9,3.9,2.1,5.3,3.6c1.4,1.5,2.4,3.2,3,5.1c0.6,1.9,0.9,3.9,0.9,5.9
		c0,2-0.3,3.9-0.9,5.9c-0.6,1.9-1.6,3.6-3,5.1c-1.4,1.5-3.1,2.7-5.3,3.6c-2.2,0.9-4.8,1.4-7.9,1.4H95.5v17.7H84.7v-49.5H107z
		 M104,269.5c1.2,0,2.5-0.1,3.6-0.3c1.2-0.2,2.2-0.5,3-1.1c0.9-0.5,1.6-1.3,2.1-2.3c0.5-1,0.8-2.2,0.8-3.8c0-1.6-0.3-2.8-0.8-3.8
		c-0.5-1-1.2-1.7-2.1-2.3c-0.9-0.5-1.9-0.9-3-1.1c-1.2-0.2-2.4-0.3-3.6-0.3h-8.4v14.8H104z"/>
	<path d="M172,246.2v9.1h-26.1v10.6h24v8.4h-24v12.1h26.7v9.1H135v-49.5H172z"/>
	<path d="M180.2,255.4v-9.1h40.5v9.1h-14.8v40.3H195v-40.3H180.2z"/>
</g>
<g>
	<g>
		<g>
			<polygon class="st2" points="48.8,-79 50.7,-80.1 50.8,-77.8 			"/>
			<path class="st2" d="M40.3-94.7c-1.6,0-3.2,0.8-4.2,2.4L29.7-81l3.1,1.7l6.5-11.2c0.3-0.6,0.8-0.6,1.1-0.6c0.3,0,0.8,0.1,1.1,0.6
				l5.8,10.1l-2.5,1.4l8,4.5l-0.1-9.2l-2.4,1.4l-5.8-10.1C43.6-93.9,41.9-94.7,40.3-94.7L40.3-94.7z"/>
		</g>
		<g>
			<polygon class="st2" points="27.2,-75.6 29.2,-76.7 29.2,-74.4 			"/>
			<path class="st2" d="M31.1-80.2l-7.9,4.6l2.5,1.4l-5.5,9.6c-1.9,3.2,0.5,7.2,4.2,7.2h12v-3.5h-12c-0.6,0-1-0.4-1.1-0.6
				c-0.1-0.2-0.3-0.7,0-1.3l5.6-9.6l2.4,1.4L31.1-80.2L31.1-80.2z"/>
		</g>
		<g>
			<polygon class="st2" points="40.3,-58.8 42.3,-60 42.3,-57.7 			"/>
			<path class="st2" d="M54.3-75.3l-3,1.8l6.2,10.7c0.3,0.6,0.1,1,0,1.3c-0.1,0.2-0.5,0.6-1.1,0.6h-12v-2.6l-7.9,4.6l7.9,4.6v-3.1
				h12c3.7,0,6-4,4.2-7.2L54.3-75.3L54.3-75.3z"/>
		</g>
	</g>
	<g>
		<path class="st2" d="M34.2-73.4c0.2-0.5,0.4-1,0.7-1.3s0.6-0.6,1-0.7c0.4-0.1,0.8-0.2,1.2-0.2c0.4,0,0.8,0.1,1.2,0.2
			s0.7,0.4,1,0.7c0.3,0.3,0.5,0.8,0.7,1.3c0.2,0.5,0.2,1.2,0.2,2c0,0.8-0.1,1.5-0.2,2.1c-0.2,0.6-0.4,1-0.7,1.3
			c-0.3,0.3-0.6,0.6-1,0.7c-0.4,0.1-0.8,0.2-1.2,0.2c-0.4,0-0.8-0.1-1.2-0.2c-0.4-0.1-0.7-0.4-1-0.7s-0.5-0.8-0.7-1.3
			c-0.2-0.6-0.2-1.2-0.2-2.1C33.9-72.2,34-72.8,34.2-73.4z M35.6-70.5c0,0.3,0.1,0.7,0.1,1c0.1,0.3,0.2,0.6,0.4,0.8
			c0.2,0.2,0.4,0.3,0.8,0.3c0.3,0,0.6-0.1,0.8-0.3c0.2-0.2,0.3-0.5,0.4-0.8c0.1-0.3,0.1-0.6,0.1-1s0-0.6,0-0.9c0-0.1,0-0.3,0-0.5
			c0-0.2,0-0.4,0-0.6c0-0.2-0.1-0.4-0.1-0.6c-0.1-0.2-0.1-0.4-0.2-0.6s-0.2-0.3-0.4-0.4s-0.4-0.2-0.6-0.2c-0.2,0-0.4,0.1-0.6,0.2
			s-0.3,0.2-0.4,0.4s-0.2,0.4-0.2,0.6c-0.1,0.2-0.1,0.4-0.1,0.6c0,0.2,0,0.4,0,0.6c0,0.2,0,0.4,0,0.5C35.6-71.1,35.6-70.8,35.6-70.5
			z"/>
		<path class="st2" d="M40.8-73.6c0.1-0.4,0.3-0.8,0.6-1.1c0.3-0.3,0.6-0.5,1-0.7c0.4-0.2,0.8-0.3,1.3-0.3c0.4,0,0.7,0.1,1.1,0.2
			c0.3,0.1,0.6,0.3,0.9,0.5s0.5,0.5,0.6,0.8c0.2,0.3,0.2,0.7,0.2,1.1c0,0.4-0.1,0.8-0.2,1.1c-0.1,0.3-0.3,0.6-0.5,0.8
			c-0.2,0.2-0.5,0.4-0.8,0.6c-0.3,0.2-0.6,0.4-0.8,0.6c-0.3,0.2-0.6,0.4-0.8,0.6c-0.3,0.2-0.5,0.5-0.7,0.7h3.9v1.4h-6.1
			c0-0.5,0.1-0.9,0.2-1.3c0.1-0.4,0.3-0.7,0.6-1s0.5-0.5,0.8-0.8c0.3-0.2,0.7-0.5,1-0.7c0.2-0.1,0.4-0.3,0.6-0.4s0.4-0.3,0.6-0.4
			c0.2-0.2,0.3-0.3,0.4-0.5c0.1-0.2,0.2-0.4,0.2-0.7c0-0.4-0.1-0.7-0.3-0.9c-0.2-0.2-0.5-0.3-0.9-0.3c-0.2,0-0.5,0.1-0.6,0.2
			c-0.2,0.1-0.3,0.3-0.4,0.4s-0.2,0.4-0.2,0.6c0,0.2-0.1,0.4-0.1,0.7h-1.6C40.7-72.7,40.7-73.2,40.8-73.6z"/>
	</g>
	<g>
		<path class="st2" d="M24.5-53.4c0.5,0,1,0.1,1.3,0.2c0.4,0.2,0.7,0.4,0.9,0.6s0.4,0.5,0.5,0.9c0.1,0.3,0.2,0.7,0.2,1
			c0,0.3-0.1,0.7-0.2,1c-0.1,0.3-0.3,0.6-0.5,0.9s-0.5,0.5-0.9,0.6C25.5-48.1,25-48,24.5-48h-1.9v3h-1.9v-8.4H24.5z M24-49.5
			c0.2,0,0.4,0,0.6,0c0.2,0,0.4-0.1,0.5-0.2c0.1-0.1,0.3-0.2,0.4-0.4s0.1-0.4,0.1-0.6s0-0.5-0.1-0.6s-0.2-0.3-0.4-0.4
			s-0.3-0.2-0.5-0.2c-0.2,0-0.4,0-0.6,0h-1.4v2.5H24z"/>
		<path class="st2" d="M35.6-53.4v1.6h-4.5v1.8h4.1v1.4h-4.1v2.1h4.5v1.6h-6.4v-8.4H35.6z"/>
		<path class="st2" d="M41-48.9v1.4h-3.6v-1.4H41z"/>
		<path class="st2" d="M45-53.4v3.2h3.4v-3.2h1.9v8.4h-1.9v-3.6H45v3.6h-1.9v-8.4H45z"/>
		<path class="st2" d="M56.3-53.4c0.5,0,1,0.1,1.5,0.3c0.5,0.2,0.9,0.4,1.2,0.8c0.3,0.3,0.6,0.8,0.8,1.3c0.2,0.5,0.3,1.1,0.3,1.8
			c0,0.6-0.1,1.2-0.2,1.7s-0.4,1-0.7,1.3c-0.3,0.4-0.7,0.7-1.2,0.9c-0.5,0.2-1,0.3-1.7,0.3h-3.6v-8.4H56.3z M56.1-46.6
			c0.3,0,0.5,0,0.8-0.1s0.5-0.2,0.7-0.4c0.2-0.2,0.4-0.5,0.5-0.8c0.1-0.3,0.2-0.7,0.2-1.2c0-0.4,0-0.8-0.1-1.2
			c-0.1-0.3-0.2-0.6-0.4-0.9c-0.2-0.2-0.4-0.4-0.8-0.6c-0.3-0.1-0.7-0.2-1.2-0.2h-1.3v5.3H56.1z"/>
	</g>
</g>
<g>
	<g>
		<g>
			<polygon class="st2" points="113.1,-79.3 115.1,-80.5 115.1,-78.2 			"/>
			<path class="st2" d="M104.6-95c-1.6,0-3.2,0.8-4.2,2.4L94-81.4l3.1,1.7l6.5-11.2c0.3-0.6,0.8-0.6,1.1-0.6c0.3,0,0.8,0.1,1.1,0.6
				l5.8,10.1l-2.5,1.4l8,4.5l-0.1-9.2l-2.4,1.4l-5.8-10.1C107.9-94.2,106.2-95,104.6-95L104.6-95z"/>
		</g>
		<g>
			<polygon class="st2" points="91.5,-75.9 93.5,-77.1 93.5,-74.8 			"/>
			<path class="st2" d="M95.4-80.5l-7.9,4.6l2.5,1.4l-5.5,9.6c-1.9,3.2,0.5,7.2,4.2,7.2h12v-3.5h-12c-0.6,0-1-0.4-1.1-0.6
				c-0.1-0.2-0.3-0.7,0-1.3l5.6-9.6l2.4,1.4L95.4-80.5L95.4-80.5z"/>
		</g>
		<g>
			<polygon class="st2" points="104.6,-59.2 106.6,-60.3 106.6,-58 			"/>
			<path class="st2" d="M118.6-75.6l-3,1.8l6.2,10.7c0.3,0.6,0.1,1,0,1.3c-0.1,0.2-0.5,0.6-1.1,0.6h-12v-2.6l-7.9,4.6l7.9,4.6v-3.1
				h12c3.7,0,6-4,4.2-7.2L118.6-75.6L118.6-75.6z"/>
		</g>
	</g>
	<g>
		<path class="st2" d="M98.7-73.4c0.2-0.5,0.4-1,0.7-1.3s0.6-0.6,1-0.7c0.4-0.1,0.8-0.2,1.2-0.2c0.4,0,0.8,0.1,1.2,0.2
			s0.7,0.4,1,0.7c0.3,0.3,0.5,0.8,0.7,1.3c0.2,0.5,0.2,1.2,0.2,2c0,0.8-0.1,1.5-0.2,2.1c-0.2,0.6-0.4,1-0.7,1.3
			c-0.3,0.3-0.6,0.6-1,0.7c-0.4,0.1-0.8,0.2-1.2,0.2c-0.4,0-0.8-0.1-1.2-0.2c-0.4-0.1-0.7-0.4-1-0.7s-0.5-0.8-0.7-1.3
			c-0.2-0.6-0.2-1.2-0.2-2.1C98.4-72.2,98.5-72.8,98.7-73.4z M100.1-70.5c0,0.3,0.1,0.7,0.1,1c0.1,0.3,0.2,0.6,0.4,0.8
			c0.2,0.2,0.4,0.3,0.8,0.3c0.3,0,0.6-0.1,0.8-0.3c0.2-0.2,0.3-0.5,0.4-0.8c0.1-0.3,0.1-0.6,0.1-1s0-0.6,0-0.9c0-0.1,0-0.3,0-0.5
			c0-0.2,0-0.4,0-0.6c0-0.2-0.1-0.4-0.1-0.6c-0.1-0.2-0.1-0.4-0.2-0.6s-0.2-0.3-0.4-0.4s-0.4-0.2-0.6-0.2c-0.2,0-0.4,0.1-0.6,0.2
			s-0.3,0.2-0.4,0.4s-0.2,0.4-0.2,0.6c-0.1,0.2-0.1,0.4-0.1,0.6c0,0.2,0,0.4,0,0.6c0,0.2,0,0.4,0,0.5
			C100.1-71.1,100.1-70.8,100.1-70.5z"/>
		<path class="st2" d="M104.9-69.1v-1.5l3.6-4.8h1.5v5h1.1v1.4H110v1.9h-1.6v-1.9H104.9z M108.4-73.3l-2.1,2.9h2.2L108.4-73.3
			L108.4-73.3z"/>
	</g>
	<g>
		<path class="st2" d="M90-53.4c0.5,0,1,0.1,1.3,0.2c0.4,0.2,0.7,0.4,0.9,0.6s0.4,0.5,0.5,0.9c0.1,0.3,0.2,0.7,0.2,1
			c0,0.3-0.1,0.7-0.2,1c-0.1,0.3-0.3,0.6-0.5,0.9s-0.5,0.5-0.9,0.6C91-48.1,90.6-48,90-48h-1.9v3h-1.9v-8.4H90z M89.5-49.5
			c0.2,0,0.4,0,0.6,0c0.2,0,0.4-0.1,0.5-0.2c0.1-0.1,0.3-0.2,0.4-0.4s0.1-0.4,0.1-0.6s0-0.5-0.1-0.6s-0.2-0.3-0.4-0.4
			s-0.3-0.2-0.5-0.2c-0.2,0-0.4,0-0.6,0h-1.4v2.5H89.5z"/>
		<path class="st2" d="M101.1-53.4v1.6h-4.5v1.8h4.1v1.4h-4.1v2.1h4.5v1.6h-6.4v-8.4H101.1z"/>
		<path class="st2" d="M106.5-48.9v1.4H103v-1.4H106.5z"/>
		<path class="st2" d="M110.6-53.4v6.9h4.1v1.6h-6v-8.4H110.6z"/>
		<path class="st2" d="M120-53.4c0.5,0,1,0.1,1.5,0.3c0.5,0.2,0.9,0.4,1.2,0.8c0.3,0.3,0.6,0.8,0.8,1.3c0.2,0.5,0.3,1.1,0.3,1.8
			c0,0.6-0.1,1.2-0.2,1.7s-0.4,1-0.7,1.3c-0.3,0.4-0.7,0.7-1.2,0.9c-0.5,0.2-1,0.3-1.7,0.3h-3.6v-8.4H120z M119.9-46.6
			c0.3,0,0.5,0,0.8-0.1s0.5-0.2,0.7-0.4c0.2-0.2,0.4-0.5,0.5-0.8c0.1-0.3,0.2-0.7,0.2-1.2c0-0.4,0-0.8-0.1-1.2
			c-0.1-0.3-0.2-0.6-0.4-0.9c-0.2-0.2-0.4-0.4-0.8-0.6c-0.3-0.1-0.7-0.2-1.2-0.2h-1.3v5.3H119.9z"/>
	</g>
</g>
<g>
	<g>
		<g>
			<polygon class="st2" points="177.3,-79.3 179.3,-80.5 179.3,-78.2 			"/>
			<path class="st2" d="M168.9-95c-1.6,0-3.2,0.8-4.2,2.4l-6.5,11.2l3.1,1.7l6.5-11.2c0.3-0.6,0.8-0.6,1.1-0.6
				c0.3,0,0.8,0.1,1.1,0.6l5.8,10.1l-2.5,1.4l8,4.5l-0.1-9.2l-2.4,1.4L173-92.6C172.1-94.2,170.5-95,168.9-95L168.9-95z"/>
		</g>
		<g>
			<polygon class="st2" points="155.7,-75.9 157.7,-77.1 157.7,-74.8 			"/>
			<path class="st2" d="M159.7-80.5l-7.9,4.6l2.5,1.4l-5.5,9.6c-1.9,3.2,0.5,7.2,4.2,7.2h12v-3.5h-12c-0.6,0-1-0.4-1.1-0.6
				c-0.1-0.2-0.3-0.7,0-1.3l5.6-9.6l2.4,1.4L159.7-80.5L159.7-80.5z"/>
		</g>
		<g>
			<polygon class="st2" points="168.9,-59.2 170.8,-60.3 170.8,-58 			"/>
			<path class="st2" d="M182.8-75.6l-3,1.8l6.2,10.7c0.3,0.6,0.1,1,0,1.3c-0.1,0.2-0.5,0.6-1.1,0.6h-12v-2.6l-7.9,4.6l7.9,4.6v-3.1
				h12c3.7,0,6-4,4.2-7.2L182.8-75.6L182.8-75.6z"/>
		</g>
	</g>
	<g>
		<path class="st2" d="M162.7-73.4c0.2-0.5,0.4-1,0.7-1.3s0.6-0.6,1-0.7c0.4-0.1,0.8-0.2,1.2-0.2c0.4,0,0.8,0.1,1.2,0.2
			s0.7,0.4,1,0.7c0.3,0.3,0.5,0.8,0.7,1.3c0.2,0.5,0.2,1.2,0.2,2c0,0.8-0.1,1.5-0.2,2.1c-0.2,0.6-0.4,1-0.7,1.3
			c-0.3,0.3-0.6,0.6-1,0.7c-0.4,0.1-0.8,0.2-1.2,0.2c-0.4,0-0.8-0.1-1.2-0.2c-0.4-0.1-0.7-0.4-1-0.7s-0.5-0.8-0.7-1.3
			c-0.2-0.6-0.2-1.2-0.2-2.1C162.5-72.2,162.6-72.8,162.7-73.4z M164.2-70.5c0,0.3,0.1,0.7,0.1,1c0.1,0.3,0.2,0.6,0.4,0.8
			c0.2,0.2,0.4,0.3,0.8,0.3c0.3,0,0.6-0.1,0.8-0.3c0.2-0.2,0.3-0.5,0.4-0.8c0.1-0.3,0.1-0.6,0.1-1s0-0.6,0-0.9c0-0.1,0-0.3,0-0.5
			c0-0.2,0-0.4,0-0.6c0-0.2-0.1-0.4-0.1-0.6c-0.1-0.2-0.1-0.4-0.2-0.6s-0.2-0.3-0.4-0.4s-0.4-0.2-0.6-0.2c-0.2,0-0.4,0.1-0.6,0.2
			s-0.3,0.2-0.4,0.4s-0.2,0.4-0.2,0.6c-0.1,0.2-0.1,0.4-0.1,0.6c0,0.2,0,0.4,0,0.6c0,0.2,0,0.4,0,0.5
			C164.2-71.1,164.2-70.8,164.2-70.5z"/>
		<path class="st2" d="M171.3-74.1l-0.3,1.9l0,0c0.2-0.2,0.5-0.4,0.7-0.5s0.6-0.1,0.9-0.1c0.4,0,0.8,0.1,1.1,0.2
			c0.3,0.1,0.6,0.3,0.8,0.6c0.2,0.3,0.4,0.5,0.5,0.9c0.1,0.3,0.2,0.7,0.2,1.1c0,0.4-0.1,0.8-0.2,1.2s-0.4,0.7-0.7,1
			c-0.3,0.3-0.6,0.5-1,0.6s-0.8,0.2-1.2,0.2c-0.4,0-0.8-0.1-1.2-0.2s-0.7-0.3-1-0.5s-0.5-0.5-0.7-0.8c-0.2-0.3-0.3-0.7-0.3-1.1h1.7
			c0,0.4,0.2,0.7,0.4,0.9s0.6,0.3,0.9,0.3c0.2,0,0.4,0,0.6-0.1c0.2-0.1,0.3-0.2,0.4-0.4s0.2-0.3,0.3-0.5c0.1-0.2,0.1-0.4,0.1-0.6
			c0-0.2,0-0.4-0.1-0.6c-0.1-0.2-0.2-0.4-0.3-0.5s-0.3-0.3-0.4-0.3c-0.2-0.1-0.4-0.1-0.6-0.1c-0.3,0-0.5,0.1-0.7,0.2
			c-0.2,0.1-0.4,0.3-0.5,0.5h-1.5l0.8-4.6h4.6v1.4H171.3z"/>
	</g>
	<g>
		<path class="st2" d="M165.8-53.4c0.5,0,1,0.1,1.3,0.2c0.4,0.2,0.7,0.4,0.9,0.6s0.4,0.5,0.5,0.9c0.1,0.3,0.2,0.7,0.2,1
			c0,0.3-0.1,0.7-0.2,1c-0.1,0.3-0.3,0.6-0.5,0.9s-0.5,0.5-0.9,0.6c-0.4,0.2-0.8,0.2-1.3,0.2h-1.9v3H162v-8.4H165.8z M165.3-49.5
			c0.2,0,0.4,0,0.6,0c0.2,0,0.4-0.1,0.5-0.2c0.1-0.1,0.3-0.2,0.4-0.4s0.1-0.4,0.1-0.6s0-0.5-0.1-0.6s-0.2-0.3-0.4-0.4
			s-0.3-0.2-0.5-0.2c-0.2,0-0.4,0-0.6,0h-1.4v2.5H165.3z"/>
		<path class="st2" d="M174.4-53.4c0.5,0,1,0.1,1.3,0.2c0.4,0.2,0.7,0.4,0.9,0.6s0.4,0.5,0.5,0.9c0.1,0.3,0.2,0.7,0.2,1
			c0,0.3-0.1,0.7-0.2,1c-0.1,0.3-0.3,0.6-0.5,0.9s-0.5,0.5-0.9,0.6c-0.4,0.2-0.8,0.2-1.3,0.2h-1.9v3h-1.9v-8.4H174.4z M173.9-49.5
			c0.2,0,0.4,0,0.6,0c0.2,0,0.4-0.1,0.5-0.2c0.1-0.1,0.3-0.2,0.4-0.4s0.1-0.4,0.1-0.6s0-0.5-0.1-0.6s-0.2-0.3-0.4-0.4
			s-0.3-0.2-0.5-0.2c-0.2,0-0.4,0-0.6,0h-1.4v2.5H173.9z"/>
	</g>
</g>
<g>
	<g>
		<g>
			<polygon class="st2" points="241.6,-79.3 243.5,-80.5 243.6,-78.2 			"/>
			<path class="st2" d="M233.1-95c-1.6,0-3.2,0.8-4.2,2.4l-6.5,11.2l3.1,1.7l6.5-11.2c0.3-0.6,0.8-0.6,1.1-0.6
				c0.3,0,0.8,0.1,1.1,0.6l5.8,10.1l-2.5,1.4l8,4.5l-0.1-9.2l-2.4,1.4l-5.8-10.1C236.4-94.2,234.7-95,233.1-95L233.1-95z"/>
		</g>
		<g>
			<polygon class="st2" points="221.2,-75.2 220,-75.9 222,-77.1 222,-74.8 			"/>
			<path class="st2" d="M223.9-80.5l-7.9,4.6l2.5,1.4l-5.5,9.6c-1.9,3.2,0.5,7.2,4.2,7.2h12v-3.5h-12c-0.6,0-1-0.4-1.1-0.6
				c-0.1-0.2-0.3-0.7,0-1.3l5.6-9.6l2.4,1.4L223.9-80.5L223.9-80.5z"/>
		</g>
		<g>
			<polygon class="st2" points="233.1,-59.2 235.1,-60.3 235.1,-58 			"/>
			<path class="st2" d="M247.1-75.6l-3,1.8l6.2,10.7c0.3,0.6,0.1,1,0,1.3c-0.1,0.2-0.5,0.6-1.1,0.6h-12v-2.6l-7.9,4.6l7.9,4.6v-3.1
				h12c3.7,0,6-4,4.2-7.2L247.1-75.6L247.1-75.6z"/>
		</g>
	</g>
	<g>
		<path class="st2" d="M227.1-73.4c0.2-0.5,0.4-1,0.7-1.3s0.6-0.6,1-0.7c0.4-0.1,0.8-0.2,1.2-0.2c0.4,0,0.8,0.1,1.2,0.2
			s0.7,0.4,1,0.7c0.3,0.3,0.5,0.8,0.7,1.3c0.2,0.5,0.2,1.2,0.2,2c0,0.8-0.1,1.5-0.2,2.1c-0.2,0.6-0.4,1-0.7,1.3
			c-0.3,0.3-0.6,0.6-1,0.7c-0.4,0.1-0.8,0.2-1.2,0.2c-0.4,0-0.8-0.1-1.2-0.2c-0.4-0.1-0.7-0.4-1-0.7s-0.5-0.8-0.7-1.3
			c-0.2-0.6-0.2-1.2-0.2-2.1C226.9-72.2,227-72.8,227.1-73.4z M228.6-70.5c0,0.3,0.1,0.7,0.1,1c0.1,0.3,0.2,0.6,0.4,0.8
			c0.2,0.2,0.4,0.3,0.8,0.3c0.3,0,0.6-0.1,0.8-0.3c0.2-0.2,0.3-0.5,0.4-0.8c0.1-0.3,0.1-0.6,0.1-1s0-0.6,0-0.9c0-0.1,0-0.3,0-0.5
			c0-0.2,0-0.4,0-0.6c0-0.2-0.1-0.4-0.1-0.6c-0.1-0.2-0.1-0.4-0.2-0.6s-0.2-0.3-0.4-0.4s-0.4-0.2-0.6-0.2c-0.2,0-0.4,0.1-0.6,0.2
			s-0.3,0.2-0.4,0.4s-0.2,0.4-0.2,0.6c-0.1,0.2-0.1,0.4-0.1,0.6c0,0.2,0,0.4,0,0.6c0,0.2,0,0.4,0,0.5
			C228.6-71.1,228.6-70.8,228.6-70.5z"/>
		<path class="st2" d="M237.4-74c-0.2-0.2-0.4-0.3-0.7-0.3c-0.3,0-0.5,0.1-0.8,0.3c-0.2,0.2-0.4,0.4-0.5,0.6s-0.2,0.5-0.3,0.8
			c-0.1,0.3-0.1,0.6-0.1,0.8l0,0c0.2-0.3,0.5-0.6,0.8-0.7c0.3-0.1,0.7-0.2,1.1-0.2c0.4,0,0.7,0.1,1,0.2c0.3,0.2,0.6,0.4,0.9,0.6
			c0.2,0.3,0.4,0.5,0.5,0.9c0.1,0.3,0.2,0.6,0.2,1c0,0.4-0.1,0.8-0.2,1.2s-0.3,0.7-0.6,1c-0.3,0.3-0.6,0.5-0.9,0.6
			c-0.4,0.2-0.7,0.2-1.2,0.2c-0.6,0-1.1-0.1-1.5-0.4c-0.4-0.2-0.7-0.6-1-1c-0.2-0.4-0.4-0.9-0.5-1.4s-0.1-1-0.1-1.6
			c0-0.5,0.1-1,0.2-1.5s0.3-1,0.6-1.4c0.3-0.4,0.6-0.8,1-1c0.4-0.3,0.9-0.4,1.5-0.4c0.4,0,0.7,0.1,1,0.2c0.3,0.1,0.6,0.2,0.8,0.4
			c0.2,0.2,0.4,0.4,0.6,0.7s0.2,0.6,0.3,1h-1.6C237.7-73.6,237.6-73.8,237.4-74z M236-71.3c-0.2,0.1-0.3,0.2-0.4,0.3
			c-0.1,0.1-0.2,0.3-0.2,0.5c-0.1,0.2-0.1,0.4-0.1,0.6c0,0.2,0,0.4,0.1,0.6c0.1,0.2,0.1,0.4,0.3,0.5s0.3,0.3,0.4,0.3
			c0.2,0.1,0.4,0.1,0.6,0.1c0.2,0,0.4,0,0.5-0.1c0.2-0.1,0.3-0.2,0.4-0.3s0.2-0.3,0.2-0.5c0.1-0.2,0.1-0.4,0.1-0.6
			c0-0.2,0-0.4-0.1-0.6c-0.1-0.2-0.1-0.4-0.2-0.5s-0.2-0.3-0.4-0.4c-0.2-0.1-0.3-0.1-0.6-0.1C236.4-71.5,236.2-71.4,236-71.3z"/>
	</g>
	<g>
		<path class="st2" d="M229.9-53.4c0.5,0,1,0.1,1.3,0.2c0.4,0.2,0.7,0.4,0.9,0.6s0.4,0.5,0.5,0.9c0.1,0.3,0.2,0.7,0.2,1
			c0,0.3-0.1,0.7-0.2,1c-0.1,0.3-0.3,0.6-0.5,0.9s-0.5,0.5-0.9,0.6c-0.4,0.2-0.8,0.2-1.3,0.2h-1.9v3h-1.9v-8.4H229.9z M229.4-49.5
			c0.2,0,0.4,0,0.6,0c0.2,0,0.4-0.1,0.5-0.2c0.1-0.1,0.3-0.2,0.4-0.4s0.1-0.4,0.1-0.6s0-0.5-0.1-0.6s-0.2-0.3-0.4-0.4
			s-0.3-0.2-0.5-0.2c-0.2,0-0.4,0-0.6,0h-1.4v2.5H229.4z"/>
		<path class="st2" d="M236.1-47.1c0.1,0.2,0.2,0.4,0.4,0.5c0.2,0.1,0.4,0.2,0.6,0.3c0.2,0.1,0.5,0.1,0.7,0.1c0.2,0,0.3,0,0.5,0
			c0.2,0,0.4-0.1,0.5-0.2c0.2-0.1,0.3-0.2,0.4-0.3c0.1-0.1,0.2-0.3,0.2-0.5c0-0.2-0.1-0.4-0.2-0.6s-0.3-0.3-0.6-0.4
			s-0.5-0.2-0.8-0.2c-0.3-0.1-0.6-0.1-0.9-0.2c-0.3-0.1-0.6-0.2-0.9-0.3s-0.6-0.3-0.8-0.4c-0.2-0.2-0.4-0.4-0.6-0.7s-0.2-0.6-0.2-1
			c0-0.4,0.1-0.8,0.3-1.1c0.2-0.3,0.4-0.6,0.7-0.8c0.3-0.2,0.6-0.4,1-0.5c0.4-0.1,0.8-0.2,1.1-0.2c0.4,0,0.9,0,1.3,0.1
			c0.4,0.1,0.8,0.3,1.1,0.5c0.3,0.2,0.6,0.5,0.8,0.8c0.2,0.3,0.3,0.8,0.3,1.2h-1.8c0-0.3-0.1-0.5-0.2-0.6c-0.1-0.2-0.2-0.3-0.4-0.4
			c-0.2-0.1-0.3-0.2-0.5-0.2c-0.2,0-0.4-0.1-0.6-0.1c-0.2,0-0.3,0-0.4,0s-0.3,0.1-0.4,0.2c-0.1,0.1-0.2,0.2-0.3,0.3
			c-0.1,0.1-0.1,0.3-0.1,0.4c0,0.2,0,0.3,0.1,0.4c0.1,0.1,0.2,0.2,0.4,0.3c0.2,0.1,0.4,0.2,0.8,0.3c0.3,0.1,0.8,0.2,1.3,0.3
			c0.2,0,0.4,0.1,0.7,0.2c0.3,0.1,0.6,0.2,0.8,0.4c0.3,0.2,0.5,0.4,0.7,0.7c0.2,0.3,0.3,0.7,0.3,1.2c0,0.4-0.1,0.7-0.2,1.1
			c-0.1,0.3-0.4,0.6-0.7,0.9c-0.3,0.2-0.7,0.4-1.1,0.6c-0.4,0.1-0.9,0.2-1.5,0.2c-0.5,0-0.9-0.1-1.4-0.2c-0.4-0.1-0.8-0.3-1.2-0.5
			c-0.3-0.2-0.6-0.6-0.8-0.9c-0.2-0.4-0.3-0.8-0.3-1.3h1.8C235.9-47.5,236-47.3,236.1-47.1z"/>
	</g>
</g>
</svg>
