<?xml version="1.0" encoding="utf-8"?>
<!-- Generator: Adobe Illustrator 23.1.1, SVG Export Plug-In . SVG Version: 6.00 Build 0)  -->
<svg version="1.1" id="Layer_1" xmlns="http://www.w3.org/2000/svg" xmlns:xlink="http://www.w3.org/1999/xlink" x="0px" y="0px"
	 viewBox="0 0 300 300" style="enable-background:new 0 0 300 300;" xml:space="preserve">
<style type="text/css">
	.st0{display:none;}
	.st1{display:inline;}
	.st2{fill:#FFFFFF;}
</style>
<g class="st0">
	<g class="st1">
		<path d="M223.1,123.1l-0.4-53.7l-14.1,8.3l-34.1-59.1C169.1,9,159.5,4.3,150,4.3c-9.5,0-19,4.7-24.4,14.2l-38,65.7l18.1,10.3
			l37.9-65.6c1.9-3.3,4.8-3.8,6.4-3.8c1.7,0,4.6,0.5,6.5,3.8l34.3,59.3l-14.4,8.5L223.1,123.1z"/>
	</g>
	<g class="st1">
		<path d="M49.6,199c-0.8-1.4-1.9-4.2,0-7.5L82.3,135l14.2,8.1l-0.4-53.7l-46.3,27.3l14.4,8.2l-32.5,56.4
			c-10.9,18.8,2.7,42.4,24.4,42.4h70.4v-20.8H56.1C52.4,202.7,50.4,200.3,49.6,199z"/>
	</g>
	<g class="st1">
		<path d="M268.3,181.1l-36.4-63l-17.9,10.5l36.3,62.8c1.9,3.3,0.8,6.1,0,7.5c-0.8,1.4-2.8,3.7-6.5,3.7h-70.6v-15l-46.5,26.9
			l46.5,26.9v-18h70.6C265.6,223.5,279.3,199.9,268.3,181.1z"/>
	</g>
</g>
<g>
	<path d="M68,200.2c-6.2,0-11-2.3-13.3-6.3c-2.2-3.9-1.8-9,1.4-14.5l25.5-44.2l15.7,9.1V83.8l-52.5,30.3l15.3,8.8l-25.5,44.2
		c-7.6,13.2-8.1,27.6-1.4,39.3c6.8,11.7,19.8,18.7,34.9,18.7H120v-12.7v-12.1H68z"/>
	<path d="M137.4,38.6c2.9-5.1,7.3-8,12-8c4.7,0,9,2.9,12,8l29.4,51l-15.4,8.9l52.5,30.3V68.1l-15.6,9l-29.4-51
		c-7.4-12.8-19.9-20.4-33.5-20.4c-13.6,0-26.1,7.6-33.5,20.4L86.6,76.9L108.3,89L137.4,38.6z"/>
	<path d="M264.2,167.1l-25.6-44.3l-21.5,12.4l25.6,44.3c3.1,5.4,3.6,10.6,1.4,14.5c-2.3,4-7.2,6.3-13.3,6.3h-58.2V182L120,212.3
		l52.5,30.3v-17.6h58.2c15.1,0,28.1-7,34.8-18.7C272.3,194.7,271.8,180.3,264.2,167.1z"/>
</g>
<g>
	<g>
		<polygon class="st2" points="48.8,-79 50.7,-80.1 50.8,-77.8 		"/>
		<path class="st2" d="M40.3-94.7c-1.6,0-3.2,0.8-4.2,2.4L29.7-81l3.1,1.7l6.5-11.2c0.3-0.6,0.8-0.6,1.1-0.6c0.3,0,0.8,0.1,1.1,0.6
			l5.8,10.1l-2.5,1.4l8,4.5l-0.1-9.2l-2.4,1.4l-5.8-10.1C43.6-93.9,41.9-94.7,40.3-94.7L40.3-94.7z"/>
	</g>
	<g>
		<polygon class="st2" points="27.2,-75.6 29.2,-76.7 29.2,-74.4 		"/>
		<path class="st2" d="M31.1-80.2l-7.9,4.6l2.5,1.4l-5.5,9.6c-1.9,3.2,0.5,7.2,4.2,7.2h12v-3.5h-12c-0.6,0-1-0.4-1.1-0.6
			c-0.1-0.2-0.3-0.7,0-1.3l5.6-9.6l2.4,1.4L31.1-80.2L31.1-80.2z"/>
	</g>
	<g>
		<polygon class="st2" points="40.3,-58.8 42.3,-60 42.3,-57.7 		"/>
		<path class="st2" d="M54.3-75.3l-3,1.8l6.2,10.7c0.3,0.6,0.1,1,0,1.3c-0.1,0.2-0.5,0.6-1.1,0.6h-12v-2.6l-7.9,4.6l7.9,4.6v-3.1h12
			c3.7,0,6-4,4.2-7.2L54.3-75.3L54.3-75.3z"/>
	</g>
</g>
<g>
	<g>
		<polygon class="st2" points="113.1,-79.3 115.1,-80.5 115.1,-78.2 		"/>
		<path class="st2" d="M104.6-95c-1.6,0-3.2,0.8-4.2,2.4L94-81.4l3.1,1.7l6.5-11.2c0.3-0.6,0.8-0.6,1.1-0.6c0.3,0,0.8,0.1,1.1,0.6
			l5.8,10.1l-2.5,1.4l8,4.5l-0.1-9.2l-2.4,1.4l-5.8-10.1C107.9-94.2,106.2-95,104.6-95L104.6-95z"/>
	</g>
	<g>
		<polygon class="st2" points="91.5,-75.9 93.5,-77.1 93.5,-74.8 		"/>
		<path class="st2" d="M95.4-80.5l-7.9,4.6l2.5,1.4l-5.5,9.6c-1.9,3.2,0.5,7.2,4.2,7.2h12v-3.5h-12c-0.6,0-1-0.4-1.1-0.6
			c-0.1-0.2-0.3-0.7,0-1.3l5.6-9.6l2.4,1.4L95.4-80.5L95.4-80.5z"/>
	</g>
	<g>
		<polygon class="st2" points="104.6,-59.2 106.6,-60.3 106.6,-58 		"/>
		<path class="st2" d="M118.6-75.6l-3,1.8l6.2,10.7c0.3,0.6,0.1,1,0,1.3c-0.1,0.2-0.5,0.6-1.1,0.6h-12v-2.6l-7.9,4.6l7.9,4.6v-3.1
			h12c3.7,0,6-4,4.2-7.2L118.6-75.6L118.6-75.6z"/>
	</g>
</g>
<g>
	<g>
		<polygon class="st2" points="177.3,-79.3 179.3,-80.5 179.3,-78.2 		"/>
		<path class="st2" d="M168.9-95c-1.6,0-3.2,0.8-4.2,2.4l-6.5,11.2l3.1,1.7l6.5-11.2c0.3-0.6,0.8-0.6,1.1-0.6c0.3,0,0.8,0.1,1.1,0.6
			l5.8,10.1l-2.5,1.4l8,4.5l-0.1-9.2l-2.4,1.4L173-92.6C172.1-94.2,170.5-95,168.9-95L168.9-95z"/>
	</g>
	<g>
		<polygon class="st2" points="155.7,-75.9 157.7,-77.1 157.7,-74.8 		"/>
		<path class="st2" d="M159.7-80.5l-7.9,4.6l2.5,1.4l-5.5,9.6c-1.9,3.2,0.5,7.2,4.2,7.2h12v-3.5h-12c-0.6,0-1-0.4-1.1-0.6
			c-0.1-0.2-0.3-0.7,0-1.3l5.6-9.6l2.4,1.4L159.7-80.5L159.7-80.5z"/>
	</g>
	<g>
		<polygon class="st2" points="168.9,-59.2 170.8,-60.3 170.8,-58 		"/>
		<path class="st2" d="M182.8-75.6l-3,1.8l6.2,10.7c0.3,0.6,0.1,1,0,1.3c-0.1,0.2-0.5,0.6-1.1,0.6h-12v-2.6l-7.9,4.6l7.9,4.6v-3.1
			h12c3.7,0,6-4,4.2-7.2L182.8-75.6L182.8-75.6z"/>
	</g>
</g>
<g>
	<g>
		<polygon class="st2" points="241.6,-79.3 243.5,-80.5 243.6,-78.2 		"/>
		<path class="st2" d="M233.1-95c-1.6,0-3.2,0.8-4.2,2.4l-6.5,11.2l3.1,1.7l6.5-11.2c0.3-0.6,0.8-0.6,1.1-0.6c0.3,0,0.8,0.1,1.1,0.6
			l5.8,10.1l-2.5,1.4l8,4.5l-0.1-9.2l-2.4,1.4l-5.8-10.1C236.4-94.2,234.7-95,233.1-95L233.1-95z"/>
	</g>
	<g>
		<polygon class="st2" points="221.2,-75.2 220,-75.9 222,-77.1 222,-74.8 		"/>
		<path class="st2" d="M223.9-80.5l-7.9,4.6l2.5,1.4l-5.5,9.6c-1.9,3.2,0.5,7.2,4.2,7.2h12v-3.5h-12c-0.6,0-1-0.4-1.1-0.6
			c-0.1-0.2-0.3-0.7,0-1.3l5.6-9.6l2.4,1.4L223.9-80.5L223.9-80.5z"/>
	</g>
	<g>
		<polygon class="st2" points="233.1,-59.2 235.1,-60.3 235.1,-58 		"/>
		<path class="st2" d="M247.1-75.6l-3,1.8l6.2,10.7c0.3,0.6,0.1,1,0,1.3c-0.1,0.2-0.5,0.6-1.1,0.6h-12v-2.6l-7.9,4.6l7.9,4.6v-3.1
			h12c3.7,0,6-4,4.2-7.2L247.1-75.6L247.1-75.6z"/>
	</g>
</g>
<g>
	<path d="M115,129c0.9-3.2,2.2-5.8,3.9-7.8c1.6-2,3.5-3.3,5.7-4.2c2.2-0.8,4.4-1.2,6.9-1.2c2.5,0,4.8,0.4,6.9,1.2
		c2.2,0.8,4.1,2.2,5.7,4.2c1.6,2,2.9,4.5,3.9,7.8c0.9,3.2,1.4,7.2,1.4,11.9c0,4.9-0.5,8.9-1.4,12.2c-1,3.3-2.2,5.9-3.9,7.8
		c-1.7,2-3.5,3.3-5.7,4.2c-2.2,0.8-4.5,1.2-6.9,1.2c-2.4,0-4.7-0.4-6.9-1.2c-2.2-0.8-4.1-2.2-5.7-4.2s-2.9-4.6-3.9-7.8
		c-0.9-3.3-1.4-7.3-1.4-12.2C113.6,136.2,114.1,132.3,115,129z M123.6,146c0.1,2,0.4,3.9,0.9,5.7c0.5,1.8,1.3,3.4,2.3,4.7
		c1.1,1.3,2.6,1.9,4.6,1.9c2,0,3.6-0.6,4.7-1.9c1.1-1.3,1.9-2.9,2.4-4.7c0.5-1.8,0.8-3.7,0.9-5.7s0.1-3.7,0.1-5c0-0.8,0-1.8,0-3
		c0-1.2-0.1-2.4-0.3-3.7c-0.2-1.2-0.4-2.5-0.7-3.7c-0.3-1.2-0.8-2.3-1.4-3.3c-0.6-1-1.4-1.8-2.3-2.4c-0.9-0.6-2.1-0.9-3.4-0.9
		c-1.3,0-2.5,0.3-3.4,0.9c-0.9,0.6-1.6,1.4-2.2,2.4c-0.6,1-1,2.1-1.4,3.3c-0.3,1.2-0.6,2.5-0.7,3.7c-0.1,1.3-0.2,2.5-0.2,3.7
		c0,1.2,0,2.2,0,3C123.5,142.4,123.5,144,123.6,146z"/>
	<path d="M175.6,125.1c-1.2-1.2-2.6-1.8-4.3-1.8c-1.8,0-3.2,0.5-4.4,1.6c-1.2,1-2.1,2.3-2.8,3.8c-0.7,1.5-1.2,3.1-1.5,4.8
		c-0.3,1.7-0.5,3.3-0.6,4.6l0.1,0.1c1.3-2,2.9-3.3,4.7-4.2c1.8-0.8,3.9-1.3,6.3-1.3c2.1,0,4.1,0.5,6.1,1.4c2,0.9,3.7,2.1,5.1,3.7
		c1.3,1.5,2.2,3.2,2.8,5.1c0.6,1.9,0.9,3.8,0.9,5.8c0,2.5-0.4,4.8-1.2,7s-2,4-3.5,5.6c-1.5,1.6-3.3,2.9-5.4,3.8
		c-2.1,0.9-4.4,1.4-7,1.4c-3.7,0-6.7-0.7-9.1-2.2c-2.4-1.5-4.3-3.4-5.8-5.7c-1.4-2.4-2.4-5-3-8c-0.6-3-0.8-6-0.8-9.1c0-3,0.3-6,1-9
		c0.7-3,1.8-5.7,3.3-8.2c1.5-2.4,3.5-4.4,5.9-5.9c2.4-1.5,5.4-2.3,8.8-2.3c2.1,0,4,0.3,5.8,0.9c1.8,0.6,3.4,1.5,4.8,2.6
		c1.4,1.1,2.5,2.5,3.4,4.2c0.9,1.7,1.5,3.6,1.7,5.8h-9.4C177.5,127.7,176.7,126.3,175.6,125.1z M167.3,141c-1,0.5-1.8,1.2-2.5,2
		c-0.7,0.8-1.1,1.8-1.5,2.9c-0.3,1.1-0.5,2.2-0.5,3.4c0,1.1,0.2,2.2,0.5,3.3c0.3,1.1,0.9,2.1,1.5,2.9c0.7,0.9,1.5,1.5,2.5,2
		c1,0.5,2.1,0.8,3.3,0.8c1.2,0,2.3-0.3,3.2-0.8c0.9-0.5,1.7-1.2,2.3-2c0.7-0.8,1.1-1.8,1.5-2.9c0.3-1.1,0.5-2.2,0.5-3.3
		c0-1.2-0.1-2.3-0.4-3.4c-0.3-1.1-0.8-2.1-1.4-2.9c-0.6-0.9-1.4-1.6-2.3-2.1c-0.9-0.5-2.1-0.8-3.3-0.8
		C169.4,140.3,168.3,140.5,167.3,141z"/>
</g>
<g>
	<path d="M131.2,246.6c3.1,0,5.8,0.4,7.9,1.4c2.2,0.9,4,2.1,5.3,3.6s2.4,3.2,3,5.1c0.6,1.9,0.9,3.9,0.9,5.9c0,2-0.3,4-0.9,5.9
		c-0.6,1.9-1.6,3.6-3,5.1c-1.4,1.5-3.1,2.7-5.3,3.6c-2.2,0.9-4.8,1.4-7.9,1.4h-11.5v17.8h-10.9v-49.7H131.2z M128.2,269.9
		c1.3,0,2.5-0.1,3.6-0.3c1.2-0.2,2.2-0.5,3.1-1.1c0.9-0.5,1.6-1.3,2.1-2.3s0.8-2.2,0.8-3.8c0-1.6-0.3-2.9-0.8-3.8s-1.2-1.7-2.1-2.3
		c-0.9-0.5-1.9-0.9-3.1-1.1c-1.2-0.2-2.4-0.3-3.6-0.3h-8.5v14.9H128.2z"/>
	<path d="M167.7,284c0.6,1.2,1.4,2.1,2.4,2.8c1,0.7,2.2,1.3,3.5,1.6c1.3,0.3,2.7,0.5,4.2,0.5c1,0,2-0.1,3.1-0.2
		c1.1-0.2,2.2-0.5,3.1-0.9c1-0.5,1.8-1.1,2.4-1.9c0.6-0.8,1-1.8,1-3.1c0-1.3-0.4-2.4-1.3-3.3c-0.9-0.8-2-1.5-3.4-2.1
		c-1.4-0.6-3-1-4.7-1.5c-1.8-0.4-3.5-0.9-5.4-1.4c-1.9-0.5-3.7-1-5.4-1.7c-1.8-0.7-3.3-1.5-4.7-2.6c-1.4-1.1-2.5-2.4-3.4-4
		c-0.9-1.6-1.3-3.5-1.3-5.8c0-2.5,0.5-4.8,1.6-6.6c1.1-1.9,2.5-3.4,4.3-4.7c1.8-1.3,3.8-2.2,6-2.8c2.2-0.6,4.5-0.9,6.7-0.9
		c2.6,0,5.1,0.3,7.5,0.9c2.4,0.6,4.5,1.5,6.4,2.8c1.9,1.3,3.3,3,4.4,5c1.1,2,1.6,4.5,1.6,7.3h-10.6c-0.1-1.5-0.4-2.7-0.9-3.7
		c-0.5-1-1.2-1.7-2.1-2.3c-0.9-0.6-1.9-1-3-1.2c-1.1-0.2-2.4-0.4-3.7-0.4c-0.9,0-1.8,0.1-2.6,0.3s-1.7,0.5-2.4,1
		c-0.7,0.5-1.3,1-1.8,1.7c-0.5,0.7-0.7,1.6-0.7,2.6c0,1,0.2,1.8,0.6,2.4c0.4,0.6,1.1,1.2,2.2,1.7c1.1,0.5,2.6,1,4.5,1.5
		c1.9,0.5,4.4,1.2,7.5,2c0.9,0.2,2.2,0.5,3.9,1c1.7,0.5,3.3,1.3,4.9,2.3c1.6,1.1,3,2.5,4.2,4.3c1.2,1.8,1.8,4.1,1.8,6.9
		c0,2.3-0.4,4.4-1.3,6.3c-0.9,1.9-2.2,3.6-3.9,5c-1.7,1.4-3.9,2.5-6.5,3.3c-2.6,0.8-5.6,1.2-8.9,1.2c-2.7,0-5.4-0.3-8-1
		c-2.6-0.7-4.9-1.7-6.8-3.2c-2-1.4-3.5-3.3-4.7-5.5c-1.2-2.2-1.7-4.9-1.7-7.9h10.6C166.8,281.4,167.1,282.8,167.7,284z"/>
</g>
</svg>
