<?xml version="1.0" encoding="utf-8"?>
<!-- Generator: Adobe Illustrator 24.0.1, SVG Export Plug-In . SVG Version: 6.00 Build 0)  -->
<svg version="1.1"
	 id="svg2" xmlns:cc="http://creativecommons.org/ns#" xmlns:dc="http://purl.org/dc/elements/1.1/" xmlns:inkscape="http://www.inkscape.org/namespaces/inkscape" xmlns:rdf="http://www.w3.org/1999/02/22-rdf-syntax-ns#" xmlns:sodipodi="http://sodipodi.sourceforge.net/DTD/sodipodi-0.dtd" xmlns:svg="http://www.w3.org/2000/svg"
	 xmlns="http://www.w3.org/2000/svg" xmlns:xlink="http://www.w3.org/1999/xlink" x="0px" y="0px" viewBox="0 0 100 100"
	 style="enable-background:new 0 0 100 100;" xml:space="preserve">
<style type="text/css">
	.st0{fill:none;stroke:#000000;stroke-width:7.8845;stroke-linejoin:round;}
	.st1{enable-background:new    ;}
</style>
<path id="path1390" inkscape:connector-curvature="0" class="st0" d="M29.9,37.6l14.8-24.7c0,0,6-5.8,11.2-0.6l13.8,23.4"/>
<g class="st1">
	<path d="M38.6,64.1V49h4.8c1.8,0,3,0.1,3.6,0.2c0.9,0.2,1.6,0.7,2.1,1.5c0.6,0.8,0.9,1.7,0.9,2.9c0,0.9-0.2,1.7-0.5,2.3
		c-0.3,0.6-0.8,1.1-1.3,1.5c-0.5,0.4-1,0.6-1.6,0.7c-0.7,0.1-1.8,0.2-3.1,0.2h-2v5.7H38.6z M41.6,51.6v4.3h1.6c1.2,0,2-0.1,2.4-0.2
		c0.4-0.2,0.7-0.4,0.9-0.7c0.2-0.3,0.3-0.7,0.3-1.2c0-0.5-0.2-1-0.5-1.4c-0.3-0.4-0.7-0.6-1.2-0.7c-0.4-0.1-1.1-0.1-2.2-0.1H41.6z"
		/>
	<path d="M64.4,64.1h-3.3l-1.3-3.4h-6l-1.2,3.4h-3.2L55.2,49h3.2L64.4,64.1z M58.8,58.2l-2.1-5.6l-2,5.6H58.8z"/>
</g>
<path id="path3262" inkscape:connector-curvature="0" class="st0" d="M46,80.9l-28.8-0.5c0,0-8-2.3-6.1-9.4l13.4-23.6"/>
<path id="path3264" inkscape:connector-curvature="0" class="st0" d="M75.6,45.3l14,25.1c0,0,2,8-5.1,9.9l-27.2,0.3"/>
<path id="head2" inkscape:connector-curvature="0" d="M46.2,80.7L62.7,71v19.1L46.2,80.7z"/>
<path id="head3" inkscape:connector-curvature="0" d="M13.7,47.4l16.5-9.7v19.1L13.7,47.4z"/>
<path id="head1" inkscape:connector-curvature="0" d="M58.8,35.9l16.5-9.7v19.1L58.8,35.9z"/>
</svg>
